<svg xmlns="http://www.w3.org/2000/svg" width="256" height="256" viewBox="0 0 100 100"><rect width="100" height="100" rx="20" fill="#ffffff"></rect><path d="M14.48 69.92L14.48 69.92Q12.01 69.92 10.54 68.46Q9.08 67.00 9.08 64.53L9.08 64.53L9.08 30.27Q9.80 30.14 11.13 29.95Q12.46 29.75 13.76 29.75L13.76 29.75Q16.69 29.75 17.99 30.73Q19.29 31.70 19.29 34.56L19.29 34.56L19.29 61.67L34.89 61.67Q35.28 62.32 35.63 63.36Q35.99 64.40 35.99 65.63L35.99 65.63Q35.99 67.78 35.05 68.85Q34.11 69.92 32.48 69.92L32.48 69.92L14.48 69.92ZM60.37 40.02L60.37 40.02Q61.08 39.70 62.42 39.34Q63.75 38.98 65.24 38.98L65.24 38.98Q67.71 38.98 69.34 39.70Q70.96 40.41 71.35 41.84L71.35 41.84Q72.13 44.70 72.85 47.14Q73.56 49.58 74.21 51.85Q74.86 54.13 75.48 56.34Q76.10 58.55 76.68 60.95L76.68 60.95L77.01 60.95Q77.66 56.92 78.18 53.19Q78.70 49.45 79.19 45.84Q79.67 42.23 80.13 38.66Q80.58 35.08 81.04 31.31L81.04 31.31Q83.12 30.08 85.65 30.08L85.65 30.08Q87.80 30.08 89.36 31.02Q90.92 31.96 90.92 34.17L90.92 34.17Q90.92 35.54 90.63 38.17Q90.33 40.80 89.81 44.09Q89.29 47.37 88.61 50.94Q87.93 54.52 87.18 57.87Q86.43 61.21 85.65 63.98Q84.87 66.74 84.16 68.36L84.16 68.36Q83.25 69.14 81.30 69.70Q79.35 70.25 77.27 70.25L77.27 70.25Q74.54 70.25 72.62 69.50Q70.70 68.75 70.25 67.39L70.25 67.39Q69.34 64.66 68.14 60.53Q66.93 56.40 65.63 51.66L65.63 51.66Q65.11 54.00 64.53 56.34Q63.94 58.68 63.36 60.89Q62.77 63.10 62.22 65.02Q61.67 66.93 61.21 68.43L61.21 68.43Q60.30 69.14 58.58 69.70Q56.86 70.25 54.71 70.25L54.71 70.25Q52.11 70.25 50 69.47Q47.89 68.69 47.24 67.39L47.24 67.39Q46.65 66.15 45.97 63.81Q45.29 61.47 44.54 58.45Q43.79 55.43 43.05 51.95Q42.30 48.47 41.62 45.00Q40.93 41.52 40.41 38.20Q39.89 34.89 39.57 32.16L39.57 32.16Q40.41 31.44 41.84 30.76Q43.27 30.08 45.03 30.08L45.03 30.08Q47.24 30.08 48.64 31.09Q50.03 32.09 50.42 34.37L50.42 34.37Q51.46 40.48 52.15 44.77Q52.83 49.06 53.32 52.11Q53.80 55.17 54.16 57.25Q54.52 59.33 54.84 60.95L54.84 60.95L55.17 60.95Q55.82 58.29 56.40 56.01Q56.99 53.74 57.61 51.37Q58.22 48.99 58.91 46.30Q59.59 43.60 60.37 40.02Z" fill="#000000"></path></svg>